<?xml version="1.0" standalone="no"?><!DOCTYPE svg PUBLIC "-//W3C//DTD SVG 1.1//EN" "http://www.w3.org/Graphics/SVG/1.1/DTD/svg11.dtd"><svg t="1533539832836" class="icon" style="" viewBox="0 0 1024 1024" version="1.1" xmlns="http://www.w3.org/2000/svg" p-id="2819" xmlns:xlink="http://www.w3.org/1999/xlink" width="128" height="128"><defs><style type="text/css"></style></defs><path d="M336.936869 686.644599c15.510252 15.468296 24.952298 36.487006 25.027 59.875692-0.075725 23.351847-9.516748 44.369533-24.952298 59.767222l-0.075725 0.01842c-15.431457 15.412015-36.597523 24.837688-60.077284 24.837688-23.517623 0-44.574195-9.459442-60.043514-24.856108-15.397688-15.396665-24.913413-36.396955-24.913413-59.767222 0-23.388686 9.515724-44.445258 24.913413-59.895135l0 0.01842c15.46932-15.396665 36.525891-24.912389 60.043514-24.912389C300.340369 661.73221 321.505411 671.247934 336.936869 686.644599zM336.936869 686.626179l0 0.01842 0 0L336.936869 686.626179zM216.816071 806.305933l0-0.01842c-0.037862 0-0.037862 0-0.037862 0L216.816071 806.305933zM191.974289 409.566026l0 122.178667c79.738066 0.056282 155.25397 31.400151 211.658607 87.950098 56.517201 56.384172 87.677898 131.950218 87.824231 212.002438l0 0 0 0.217964 122.769115 0c-0.109494-116.425639-47.441499-221.849714-123.94694-298.386878C413.811724 456.987059 308.35081 409.622308 191.974289 409.566026zM192.158485 191.942567l0 122.141828c285.188274 0.203638 516.981455 232.377488 517.241374 517.831822l122.476449 0c-0.075725-176.395476-71.802326-336.235904-187.662077-452.221522C528.314571 263.761266 368.540657 192.017268 192.158485 191.942567z" p-id="2820" fill="#ffffff"></path></svg>